# This file uses centimeters as units for non-parametric coordinates.
g default
v 2.047689 2.238304 6.285923
v 1.778957 2.238304 5.758506
v 1.360397 2.238304 5.339946
v 0.832980 2.238304 5.071214
v 0.248334 2.238304 4.978615
v -0.336312 2.238304 5.071214
v -0.863728 2.238304 5.339947
v -1.282288 2.238304 5.758507
v -1.551021 2.238304 6.285923
v -1.643619 2.238304 6.870569
v -1.551021 2.238304 7.455214
v -1.282288 2.238304 7.982631
v -0.863728 2.238304 8.401191
v -0.336312 2.238304 8.669923
v 0.248334 2.238304 8.762522
v 0.832979 2.238304 8.669923
v 1.360396 2.238304 8.401191
v 1.778956 2.238304 7.982631
v 2.047688 2.238304 7.455214
v 2.140287 2.238304 6.870569
v 1.990035 2.675625 6.304656
v 1.729913 2.675625 5.794139
v 1.324764 2.675625 5.388990
v 0.814247 2.675625 5.128868
v 0.248334 2.675625 5.039237
v -0.317579 2.675625 5.128869
v -0.828096 2.675625 5.388990
v -1.233245 2.675625 5.794139
v -1.493366 2.675625 6.304656
v -1.582998 2.675625 6.870569
v -1.493366 2.675625 7.436481
v -1.233245 2.675625 7.946999
v -0.828096 2.675625 8.352148
v -0.317579 2.675625 8.612269
v 0.248334 2.675625 8.701900
v 0.814246 2.675625 8.612269
v 1.324764 2.675625 8.352147
v 1.729912 2.675625 7.946999
v 1.990034 2.675625 7.436481
v 2.079665 2.675625 6.870569
v 0.248334 2.675625 6.870569
v 0.285488 -2.734405 8.383205
v 0.129857 -2.734405 8.407765
v 0.105123 -2.734405 8.563367
v 0.245466 -2.734405 8.634975
v 0.356938 -2.734405 8.523629
v 0.353576 2.437083 7.789649
v 0.050849 2.437083 7.837422
v 0.002736 2.437083 8.140095
v 0.275728 2.437083 8.279384
v 0.492558 2.437083 8.062797
v -1.036231 -2.734405 6.072756
v -0.971255 -2.734405 5.929222
v -1.087685 -2.734405 5.823071
v -1.224619 -2.734405 5.901000
v -1.192819 -2.734405 6.055314
v -0.577672 2.437083 6.455728
v -0.451283 2.437083 6.176531
v -0.677759 2.437083 5.970050
v -0.944118 2.437083 6.121636
v -0.882261 2.437083 6.421802
v 1.494352 -2.734405 6.072756
v 1.429376 -2.734405 5.929222
v 1.545806 -2.734405 5.823071
v 1.682740 -2.734405 5.901000
v 1.650940 -2.734405 6.055314
v 1.035794 2.437083 6.455728
v 0.909404 2.437083 6.176531
v 1.135880 2.437083 5.970050
v 1.402240 2.437083 6.121636
v 1.340383 2.437083 6.421802
vt 0.001778 0.131054
vt 0.001812 0.088230
vt 0.961248 0.847448
vt 0.001799 0.046077
vt 0.001733 0.002299
vt 0.001658 0.950180
vt 0.001641 0.901796
vt 0.001621 0.852614
vt 0.001600 0.802531
vt 0.001578 0.751472
vt 0.001556 0.699360
vt 0.001537 0.646186
vt 0.001522 0.592051
vt 0.001515 0.537280
vt 0.001517 0.482365
vt 0.001528 0.427795
vt 0.001549 0.374066
vt 0.001580 0.321661
vt 0.001620 0.270912
vt 0.001670 0.222124
vt 0.001725 0.175555
vt 0.038819 0.175563
vt 0.985150 0.776291
vt 0.748543 0.736457
vt 0.038874 0.222133
vt 0.985847 0.701227
vt 0.038925 0.270921
vt 0.963359 0.629612
vt 0.038964 0.321668
vt 0.919837 0.568455
vt 0.038995 0.374072
vt 0.859533 0.523755
vt 0.039016 0.427799
vt 0.788370 0.499886
vt 0.039027 0.482366
vt 0.713304 0.499119
vt 0.039029 0.537280
vt 0.641697 0.521642
vt 0.039022 0.592048
vt 0.580563 0.565171
vt 0.039007 0.646182
vt 0.535840 0.625470
vt 0.038988 0.699356
vt 0.511934 0.696633
vt 0.038966 0.751467
vt 0.511228 0.771688
vt 0.038944 0.802527
vt 0.533735 0.843286
vt 0.038923 0.852610
vt 0.577247 0.904469
vt 0.038903 0.901792
vt 0.637549 0.949163
vt 0.038885 0.950175
vt 0.708718 0.973040
vt 0.038883 0.997894
vt 0.783771 0.973779
vt 0.038744 0.046072
vt 0.855392 0.951288
vt 0.038732 0.088232
vt 0.916531 0.907734
vt 0.038767 0.131059
vt 0.001663 0.998008
vt 0.985847 0.701227
vt 0.038812 0.002396
vt 0.174476 0.346992
vt 0.201092 0.346403
vt 0.227172 0.978436
vt 0.181987 0.979581
vt 0.228026 0.343832
vt 0.264075 0.973432
vt 0.098268 0.342468
vt 0.117404 0.343064
vt 0.092541 0.971944
vt 0.044214 0.970786
vt 0.147539 0.345161
vt 0.137437 0.976022
vt 0.088839 0.176930
vt 0.088529 0.140139
vt 0.716208 0.106747
vt 0.716807 0.168171
vt 0.086248 0.096811
vt 0.711773 0.052255
vt 0.084399 0.060106
vt 0.708177 0.015458
vt 0.084394 0.245811
vt 0.086748 0.226950
vt 0.712735 0.222705
vt 0.708151 0.290520
vt 0.404147 0.351298
vt 0.417708 0.979490
vt 0.367183 0.978355
vt 0.375458 0.350714
vt 0.320850 0.973390
vt 0.343918 0.348161
vt 0.271399 0.969263
vt 0.325024 0.346040
vt 0.468622 0.347395
vt 0.504370 0.971898
vt 0.467611 0.975951
vt 0.436633 0.349478
vt 0.155418 0.345161
vt 0.129558 0.976022
vt 0.128509 0.343064
vt 0.081436 0.971944
vt 0.209054 0.346403
vt 0.219210 0.978436
vt 0.181956 0.346992
vt 0.174507 0.979581
vt 0.449724 0.349478
vt 0.454520 0.975951
vt 0.356618 0.348161
vt 0.308150 0.973390
vt 0.385144 0.350714
vt 0.357497 0.978355
vt 0.417707 0.351298
vt 0.404148 0.979490
vt 0.086748 0.195823
vt 0.712735 0.253833
vt 0.086248 0.079024
vt 0.711773 0.070042
vt 0.088529 0.115681
vt 0.716208 0.131205
vt 0.088839 0.159143
vt 0.716807 0.185958
vn 0.942049 0.137307 -0.306089
vn 0.801355 0.137306 -0.582218
vn 0.801355 0.137307 -0.582218
vn 0.942049 0.137307 -0.306089
vn 0.582218 0.137307 -0.801355
vn 0.582218 0.137307 -0.801355
vn 0.449794 0.135648 -0.882771
vn 0.449794 0.135648 -0.882771
vn 0.154988 0.135647 -0.978559
vn -0.000000 0.137307 -0.990529
vn -0.000000 0.137307 -0.990529
vn 0.154988 0.135647 -0.978559
vn -0.306090 0.137307 -0.942049
vn -0.306090 0.137307 -0.942049
vn -0.582218 0.137307 -0.801354
vn -0.582218 0.137307 -0.801354
vn -0.801355 0.137307 -0.582218
vn -0.801355 0.137307 -0.582218
vn -0.942049 0.137307 -0.306090
vn -0.942049 0.137307 -0.306090
vn -0.990529 0.137307 -0.000000
vn -0.990529 0.137307 -0.000000
vn -0.942049 0.137307 0.306090
vn -0.942049 0.137307 0.306090
vn -0.801354 0.137307 0.582218
vn -0.801354 0.137307 0.582218
vn -0.582218 0.137307 0.801355
vn -0.582218 0.137307 0.801355
vn -0.306090 0.137307 0.942049
vn -0.306090 0.137307 0.942049
vn 0.000000 0.137307 0.990529
vn 0.000000 0.137307 0.990529
vn 0.306090 0.137307 0.942049
vn 0.306090 0.137307 0.942049
vn 0.582218 0.137307 0.801354
vn 0.582218 0.137307 0.801355
vn 0.801355 0.137307 0.582218
vn 0.801355 0.137307 0.582218
vn 0.942049 0.137307 0.306090
vn 0.942049 0.137307 0.306090
vn 0.990529 0.137307 0.000001
vn 0.990529 0.137307 0.000001
vn 0.000000 1.000000 -0.000000
vn 0.000000 1.000000 0.000000
vn 0.000000 1.000000 -0.000000
vn 0.000000 1.000000 -0.000000
vn 0.000000 1.000000 -0.000000
vn 0.000000 1.000000 0.000000
vn 0.000000 1.000000 0.000000
vn 0.000000 1.000000 0.000000
vn 0.000000 1.000000 0.000000
vn 0.000000 1.000000 -0.000000
vn 0.000000 1.000000 0.000000
vn 0.000000 1.000000 0.000000
vn 0.000000 1.000000 -0.000000
vn 0.000000 1.000000 -0.000000
vn 0.000000 1.000000 0.000000
vn 0.000000 1.000000 0.000000
vn 0.000000 1.000000 0.000000
vn 0.000000 1.000000 0.000000
vn 0.000000 1.000000 0.000000
vn 0.000000 1.000000 0.000000
vn 0.000000 1.000000 0.000001
vn 0.000000 1.000000 -0.000000
vn 0.464657 -0.107005 -0.879001
vn -0.720893 -0.086844 -0.687584
vn -0.685375 -0.090162 -0.722587
vn 0.437869 -0.108202 -0.892504
vn -0.987082 -0.032385 -0.156907
vn -0.987082 -0.032385 -0.156907
vn -0.453565 0.063777 0.888938
vn 0.149296 0.066960 0.986523
vn 0.161456 0.066758 0.984619
vn -0.453565 0.063777 0.888939
vn 0.981619 -0.008754 0.190651
vn 0.992314 -0.015079 0.122820
vn 0.479211 -0.107005 0.871153
vn 0.970567 -0.086844 -0.224630
vn 0.980302 -0.090162 -0.175722
vn 0.505210 -0.108202 0.856187
vn 0.080036 0.021979 -0.996550
vn 0.140780 0.016975 -0.989895
vn -0.493607 0.063777 -0.867343
vn -0.493607 0.063777 -0.867343
vn -0.978451 0.044468 0.201635
vn -0.698572 -0.008754 0.715486
vn -0.647770 -0.015079 0.761687
vn -0.978451 0.044468 0.201635
vn -0.479211 -0.107005 0.871153
vn -0.505210 -0.108202 0.856187
vn -0.980302 -0.090162 -0.175722
vn -0.970567 -0.086844 -0.224630
vn -0.140780 0.016975 -0.989895
vn -0.080036 0.021979 -0.996550
vn 0.493607 0.063777 -0.867343
vn 0.493607 0.063777 -0.867343
vn 0.978451 0.044468 0.201635
vn 0.978451 0.044468 0.201635
vn 0.647770 -0.015079 0.761687
vn 0.698572 -0.008754 0.715486
s 1
g LP1
usemtl blinn4SG
f 1/1/1 2/2/2 22/59/3 21/61/4
f 2/2/2 3/4/5 23/57/6 22/59/3
f 3/4/5 4/5/7 24/64/8 23/57/6
f 4/62/9 5/6/10 25/53/11 24/55/12
f 5/6/10 6/7/13 26/51/14 25/53/11
f 6/7/13 7/8/15 27/49/16 26/51/14
f 7/8/15 8/9/17 28/47/18 27/49/16
f 8/9/17 9/10/19 29/45/20 28/47/18
f 9/10/19 10/11/21 30/43/22 29/45/20
f 10/11/21 11/12/23 31/41/24 30/43/22
f 11/12/23 12/13/25 32/39/26 31/41/24
f 12/13/25 13/14/27 33/37/28 32/39/26
f 13/14/27 14/15/29 34/35/30 33/37/28
f 14/15/29 15/16/31 35/33/32 34/35/30
f 15/16/31 16/17/33 36/31/34 35/33/32
f 16/17/33 17/18/35 37/29/36 36/31/34
f 17/18/35 18/19/37 38/27/38 37/29/36
f 18/19/37 19/20/39 39/25/40 38/27/38
f 19/20/39 20/21/41 40/22/42 39/25/40
f 20/21/41 1/1/1 21/61/4 40/22/42
s 3
f 21/3/43 22/60/44 41/24/45
f 22/60/44 23/58/46 41/24/45
f 23/58/46 24/56/47 41/24/45
f 24/56/47 25/54/48 41/24/45
f 25/54/48 26/52/49 41/24/45
f 26/52/49 27/50/50 41/24/45
f 27/50/50 28/48/51 41/24/45
f 28/48/51 29/46/52 41/24/45
f 29/46/52 30/44/53 41/24/45
f 30/44/53 31/42/54 41/24/45
f 31/42/54 32/40/55 41/24/45
f 32/40/55 33/38/56 41/24/45
f 33/38/56 34/36/57 41/24/45
f 34/36/57 35/34/58 41/24/45
f 35/34/58 36/32/59 41/24/45
f 36/32/59 37/30/60 41/24/45
f 37/30/60 38/28/61 41/24/45
f 38/28/61 39/63/62 41/24/45
f 39/26/63 40/23/64 41/24/45
f 40/23/64 21/3/43 41/24/45
s 4
f 42/107/65 43/66/66 48/106/67 47/68/68
f 43/105/66 44/69/69 49/70/70 48/67/67
f 44/71/71 45/72/72 50/104/73 49/74/74
f 45/103/72 46/75/75 51/102/76 50/73/73
f 46/101/75 42/65/65 47/108/68 51/76/76
s 6
f 52/123/77 53/78/78 58/122/79 57/80/80
f 53/121/78 54/81/81 59/120/82 58/79/79
f 54/119/81 55/83/83 60/84/84 59/82/82
f 55/85/85 56/86/86 61/118/87 60/88/88
f 56/117/86 52/77/77 57/124/80 61/87/87
s 7
f 62/89/89 67/116/90 68/91/91 63/113/92
f 63/92/92 68/114/91 69/93/93 64/111/94
f 64/94/94 69/112/93 70/95/95 65/96/96
f 65/97/97 70/98/98 71/99/99 66/109/100
f 66/100/100 71/110/99 67/90/90 62/115/89
